<?xml version="1.0" encoding="UTF-8"?>
<svg xmlns="http://www.w3.org/2000/svg" xmlns:xlink="http://www.w3.org/1999/xlink">

  
  
  <symbol id="home" viewBox="0 0 576 512"><path d="M280.37 148.26L96 300.11V464a16 16 0 0 0 16 16l112.06-.29a16 16 0 0 0 15.92-16V368a16 16 0 0 1 16-16h64a16 16 0 0 1 16 16v95.64a16 16 0 0 0 16 16.05L464 480a16 16 0 0 0 16-16V300L295.67 148.26a12.19 12.19 0 0 0-15.3 0zM571.6 251.47L488 182.56V44.05a12 12 0 0 0-12-12h-56a12 12 0 0 0-12 12v72.61L318.47 43a48 48 0 0 0-61 0L4.34 251.47a12 12 0 0 0-1.6 16.9l25.5 31A12 12 0 0 0 45.15 301l235.22-193.74a12.19 12.19 0 0 1 15.3 0L530.9 301a12 12 0 0 0 16.9-1.6l25.5-31a12 12 0 0 0-1.7-16.93z" /></symbol>

  
  
  <symbol id="address-card" viewBox="0 0 576 512"><path d="M528 32H48C21.5 32 0 53.5 0 80v352c0 26.5 21.5 48 48 48h480c26.5 0 48-21.5 48-48V80c0-26.5-21.5-48-48-48zm-352 96c35.3 0 64 28.7 64 64s-28.7 64-64 64-64-28.7-64-64 28.7-64 64-64zm112 236.8c0 10.6-10 19.2-22.4 19.2H86.4C74 384 64 375.4 64 364.8v-19.2c0-31.8 30.1-57.6 67.2-57.6h5c12.3 5.1 25.7 8 39.8 8s27.6-2.9 39.8-8h5c37.1 0 67.2 25.8 67.2 57.6v19.2zM512 312c0 4.4-3.6 8-8 8H360c-4.4 0-8-3.6-8-8v-16c0-4.4 3.6-8 8-8h144c4.4 0 8 3.6 8 8v16zm0-64c0 4.4-3.6 8-8 8H360c-4.4 0-8-3.6-8-8v-16c0-4.4 3.6-8 8-8h144c4.4 0 8 3.6 8 8v16zm0-64c0 4.4-3.6 8-8 8H360c-4.4 0-8-3.6-8-8v-16c0-4.4 3.6-8 8-8h144c4.4 0 8 3.6 8 8v16z" /></symbol>

  
  
  <symbol id="cv" viewBox="0 0  "><path d="" /></symbol>


  
  
  <symbol id="envelope" viewBox="0 0 512 512"><path d="M502.3 190.8c3.9-3.1 9.7-.2 9.7 4.7V400c0 26.5-21.5 48-48 48H48c-26.5 0-48-21.5-48-48V195.6c0-5 5.7-7.8 9.7-4.7 22.4 17.4 52.1 39.5 154.1 113.6 21.1 15.4 56.7 47.8 92.2 47.6 35.7.3 72-32.8 92.3-47.6 102-74.1 131.6-96.3 154-113.7zM256 320c23.2.4 56.6-29.2 73.4-41.4 132.7-96.3 142.8-104.7 173.4-128.7 5.8-4.5 9.2-11.5 9.2-18.9v-19c0-26.5-21.5-48-48-48H48C21.5 64 0 85.5 0 112v19c0 7.4 3.4 14.3 9.2 18.9 30.6 23.9 40.7 32.4 173.4 128.7 16.8 12.2 50.2 41.8 73.4 41.4z" /></symbol>

  
  
  <symbol id="linkedin" viewBox="0 0 448 512"><path d="M416 32H31.9C14.3 32 0 46.5 0 64.3v383.4C0 465.5 14.3 480 31.9 480H416c17.6 0 32-14.5 32-32.3V64.3c0-17.8-14.4-32.3-32-32.3zM135.4 416H69V202.2h66.5V416zm-33.2-243c-21.3 0-38.5-17.3-38.5-38.5S80.9 96 102.2 96c21.2 0 38.5 17.3 38.5 38.5 0 21.3-17.2 38.5-38.5 38.5zm282.1 243h-66.4V312c0-24.8-.5-56.7-34.5-56.7-34.6 0-39.9 27-39.9 54.9V416h-66.4V202.2h63.7v29.2h.9c8.9-16.8 30.6-34.5 62.9-34.5 67.2 0 79.7 44.3 79.7 101.9V416z" /></symbol>

  
  
  <symbol id="researchgate" viewBox="0 0 448 512"><path d="M0 32v448h448V32H0zm262.2 334.4c-6.6 3-33.2 6-50-14.2-9.2-10.6-25.3-33.3-42.2-63.6-8.9 0-14.7 0-21.4-.6v46.4c0 23.5 6 21.2 25.8 23.9v8.1c-6.9-.3-23.1-.8-35.6-.8-13.1 0-26.1.6-33.6.8v-8.1c15.5-2.9 22-1.3 22-23.9V225c0-22.6-6.4-21-22-23.9V193c25.8 1 53.1-.6 70.9-.6 31.7 0 55.9 14.4 55.9 45.6 0 21.1-16.7 42.2-39.2 47.5 13.6 24.2 30 45.6 42.2 58.9 7.2 7.8 17.2 14.7 27.2 14.7v7.3zm22.9-135c-23.3 0-32.2-15.7-32.2-32.2V167c0-12.2 8.8-30.4 34-30.4s30.4 17.9 30.4 17.9l-10.7 7.2s-5.5-12.5-19.7-12.5c-7.9 0-19.7 7.3-19.7 19.7v26.8c0 13.4 6.6 23.3 17.9 23.3 14.1 0 21.5-10.9 21.5-26.8h-17.9v-10.7h30.4c0 20.5 4.7 49.9-34 49.9zm-116.5 44.7c-9.4 0-13.6-.3-20-.8v-69.7c6.4-.6 15-.6 22.5-.6 23.3 0 37.2 12.2 37.2 34.5 0 21.9-15 36.6-39.7 36.6z" /></symbol>

  
  
  <symbol id="google-scholar" viewBox="0 0 242 287"><path d="M 78.210938 0 L 38.367188 39.863281 L 0 78.257812 L 0 79.726562 L 18.222656 79.726562 C 29.054688 79.726562 41.3125 80.195312 45.464844 80.765625 L 53.011719 81.796875 L 53.011719 88.839844 C 53.011719 106.277344 66.246094 126.054688 83.59375 134.542969 C 90.753906 138.046875 95.585938 139.097656 107.019531 139.644531 L 121.421875 140.332031 L 120.203125 146.234375 C 118.355469 155.152344 119.113281 161.640625 122.851562 168.96875 C 124.710938 172.617188 126.234375 176.632812 126.234375 177.902344 C 126.234375 180.351562 119.511719 182.238281 110.78125 182.238281 C 102.625 182.238281 75.660156 189.5625 66.234375 194.335938 C 40.226562 207.519531 28.414062 234.40625 39.066406 256.183594 C 45.769531 269.878906 59.691406 279.695312 80.675781 285.519531 C 87.433594 287.394531 95.195312 287.832031 112.402344 287.296875 C 146.277344 286.25 162.265625 280.636719 180.832031 263.265625 C 195.03125 249.984375 200.1875 239.238281 200.195312 222.914062 C 200.203125 205.71875 196.386719 198.195312 179.71875 182.542969 C 146.296875 151.164062 148.472656 153.777344 149.488281 146.214844 C 150.277344 140.332031 152.367188 137.4375 165.09375 124.625 C 175.617188 114.027344 181.027344 107.105469 184.15625 100.230469 C 188.289062 91.152344 188.476562 89.675781 187.601562 73.074219 L 186.671875 55.519531 L 204.460938 38.335938 C 214.242188 28.886719 222.972656 21.152344 223.867188 21.152344 C 226.253906 21.152344 225.792969 32.375 223.09375 39.863281 C 221.285156 44.882812 220.734375 56.113281 220.679688 88.898438 L 220.605469 131.421875 L 224.789062 134.164062 C 228.628906 136.679688 229.292969 136.691406 232.925781 134.3125 L 236.878906 131.722656 L 236.878906 86.5625 C 236.878906 47.535156 236.519531 40.890625 234.238281 37.632812 C 232.785156 35.558594 231.21875 29.125 230.753906 23.335938 C 229.914062 12.886719 229.949219 12.769531 236.164062 6.40625 L 242.421875 0 Z M 115.070312 29.3125 C 121.269531 29.367188 127.574219 31.242188 133.25 35.230469 C 151.949219 48.371094 165 86.054688 158.804688 109.015625 C 156.164062 118.804688 145.628906 128.996094 135.511719 131.542969 C 121.746094 135.011719 113.675781 133.035156 102.925781 123.574219 C 87.144531 109.679688 77.566406 78.59375 82.230469 56.382812 C 85.648438 40.078125 99.324219 29.757812 113.832031 29.324219 C 114.246094 29.3125 114.65625 29.308594 115.070312 29.3125 Z M 139.457031 186.964844 L 150.488281 195.140625 C 176.34375 214.308594 183.640625 228.195312 178.183594 247.84375 C 176.046875 255.53125 166.792969 266.011719 158.316406 270.335938 C 154.605469 272.230469 146.050781 274.210938 137.867188 275.070312 C 121.667969 276.777344 118.785156 276.75 107.085938 274.800781 C 82.921875 270.777344 65.925781 255.996094 63.542969 236.9375 C 60.015625 208.6875 81.925781 191.730469 126.742188 188.015625 Z M 139.457031 186.964844z" /></symbol>

  
  
  <symbol id="github" viewBox="0 0 496 512"><path d="M165.9 397.4c0 2-2.3 3.6-5.2 3.6-3.3.3-5.6-1.3-5.6-3.6 0-2 2.3-3.6 5.2-3.6 3-.3 5.6 1.3 5.6 3.6zm-31.1-4.5c-.7 2 1.3 4.3 4.3 4.9 2.6 1 5.6 0 6.2-2s-1.3-4.3-4.3-5.2c-2.6-.7-5.5.3-6.2 2.3zm44.2-1.7c-2.9.7-4.9 2.6-4.6 4.9.3 2 2.9 3.3 5.9 2.6 2.9-.7 4.9-2.6 4.6-4.6-.3-1.9-3-3.2-5.9-2.9zM244.8 8C106.1 8 0 113.3 0 252c0 110.9 69.8 205.8 169.5 239.2 12.8 2.3 17.3-5.6 17.3-12.1 0-6.2-.3-40.4-.3-61.4 0 0-70 15-84.7-29.8 0 0-11.4-29.1-27.8-36.6 0 0-22.9-15.7 1.6-15.4 0 0 24.9 2 38.6 25.8 21.9 38.6 58.6 27.5 72.9 20.9 2.3-16 8.8-27.1 16-33.7-55.9-6.2-112.3-14.3-112.3-110.5 0-27.5 7.6-41.3 23.6-58.9-2.6-6.5-11.1-33.3 2.6-67.9 20.9-6.5 69 27 69 27 20-5.6 41.5-8.5 62.8-8.5s42.8 2.9 62.8 8.5c0 0 48.1-33.6 69-27 13.7 34.7 5.2 61.4 2.6 67.9 16 17.7 25.8 31.5 25.8 58.9 0 96.5-58.9 104.2-114.8 110.5 9.2 7.9 17 22.9 17 46.4 0 33.7-.3 75.4-.3 83.6 0 6.5 4.6 14.4 17.3 12.1C428.2 457.8 496 362.9 496 252 496 113.3 383.5 8 244.8 8zM97.2 352.9c-1.3 1-1 3.3.7 5.2 1.6 1.6 3.9 2.3 5.2 1 1.3-1 1-3.3-.7-5.2-1.6-1.6-3.9-2.3-5.2-1zm-10.8-8.1c-.7 1.3.3 2.9 2.3 3.9 1.6 1 3.6.7 4.3-.7.7-1.3-.3-2.9-2.3-3.9-2-.6-3.6-.3-4.3.7zm32.4 35.6c-1.6 1.3-1 4.3 1.3 6.2 2.3 2.3 5.2 2.6 6.5 1 1.3-1.3.7-4.3-1.3-6.2-2.2-2.3-5.2-2.6-6.5-1zm-11.4-14.7c-1.6 1-1.6 3.6 0 5.9 1.6 2.3 4.3 3.3 5.6 2.3 1.6-1.3 1.6-3.9 0-6.2-1.4-2.3-4-3.3-5.6-2z" /></symbol>

</svg>
